<svg width="352" height="80" viewBox="0 0 352 80" fill="none" xmlns="http://www.w3.org/2000/svg">
<rect width="352" height="80" fill="#F7DE50"/>
<path d="M48.1562 56H44.3867V42.8555H30.0508V56H26.3008V27.5625H30.0508V39.7891H44.3867V27.5625H48.1562V56ZM70.8906 42.8555H58.5664V52.9336H72.8828V56H54.8164V27.5625H72.6875V30.6484H58.5664V39.7891H70.8906V42.8555ZM97.5898 30.6484H88.4492V56H84.7188V30.6484H75.5977V27.5625H97.5898V30.6484ZM111.066 27.5625H114.836V52.9336H128.859V27.5625H132.609V52.8555H135.598L135.246 62.8555H131.867V56H111.066V27.5625ZM156.281 42.8555H143.957V52.9336H158.273V56H140.207V27.5625H158.078V30.6484H143.957V39.7891H156.281V42.8555ZM184.797 56H181.027V42.8555H166.691V56H162.941V27.5625H166.691V39.7891H181.027V27.5625H184.797V56ZM194.602 36.8008L188.703 35.043L189.602 32.0938L195.5 34.2812L195.324 27.5625H198.312L198.117 34.3789L203.918 32.2305L204.816 35.1992L198.82 36.9766L202.688 42.2695L200.266 44.1055L196.633 38.4805L193.117 43.9688L190.676 42.1914L194.602 36.8008ZM211.828 36.8008L205.93 35.043L206.828 32.0938L212.727 34.2812L212.551 27.5625H215.539L215.344 34.3789L221.145 32.2305L222.043 35.1992L216.047 36.9766L219.914 42.2695L217.492 44.1055L213.859 38.4805L210.344 43.9688L207.902 42.1914L211.828 36.8008ZM229.055 36.8008L223.156 35.043L224.055 32.0938L229.953 34.2812L229.777 27.5625H232.766L232.57 34.3789L238.371 32.2305L239.27 35.1992L233.273 36.9766L237.141 42.2695L234.719 44.1055L231.086 38.4805L227.57 43.9688L225.129 42.1914L229.055 36.8008ZM259.211 42.8555H246.887V52.9336H261.203V56H243.137V27.5625H261.008V30.6484H246.887V39.7891H259.211V42.8555ZM265.383 54.1055C265.383 53.4805 265.565 52.9596 265.93 52.543C266.307 52.1263 266.867 51.918 267.609 51.918C268.352 51.918 268.911 52.1263 269.289 52.543C269.68 52.9596 269.875 53.4805 269.875 54.1055C269.875 54.7044 269.68 55.2057 269.289 55.6094C268.911 56.013 268.352 56.2148 267.609 56.2148C266.867 56.2148 266.307 56.013 265.93 55.6094C265.565 55.2057 265.383 54.7044 265.383 54.1055ZM280.168 44.8672V56H276.418V27.5625H286.906C290.018 27.5625 292.453 28.3568 294.211 29.9453C295.982 31.5339 296.867 33.6367 296.867 36.2539C296.867 39.0143 296.001 41.1432 294.27 42.6406C292.551 44.125 290.083 44.8672 286.867 44.8672H280.168ZM280.168 41.8008H286.906C288.911 41.8008 290.448 41.332 291.516 40.3945C292.583 39.444 293.117 38.0768 293.117 36.293C293.117 34.6003 292.583 33.2461 291.516 32.2305C290.448 31.2148 288.983 30.6875 287.121 30.6484H280.168V41.8008ZM315.695 30.4141H316.301C318.449 30.4271 320.409 30.9284 322.18 31.918C323.951 32.9076 325.324 34.2747 326.301 36.0195C327.29 37.7513 327.785 39.6914 327.785 41.8398C327.785 44.0013 327.29 45.9609 326.301 47.7188C325.311 49.4766 323.944 50.8503 322.199 51.8398C320.454 52.8164 318.514 53.3177 316.379 53.3438H315.695V57.1719H312.062V53.3438H311.516C309.341 53.3438 307.362 52.849 305.578 51.8594C303.807 50.8698 302.427 49.5026 301.438 47.7578C300.461 46.013 299.973 44.0534 299.973 41.8789C299.973 39.7044 300.461 37.7448 301.438 36C302.427 34.2552 303.807 32.888 305.578 31.8984C307.362 30.9089 309.341 30.4141 311.516 30.4141H312.062V26.3906H315.695V30.4141ZM311.516 33.3633C309.068 33.3633 307.128 34.1185 305.695 35.6289C304.276 37.1263 303.566 39.2096 303.566 41.8789C303.566 44.5612 304.276 46.651 305.695 48.1484C307.115 49.6328 309.068 50.375 311.555 50.375H312.062V33.3633H311.516ZM315.695 33.3633V50.375H316.242C318.729 50.375 320.669 49.6133 322.062 48.0898C323.469 46.5534 324.172 44.4701 324.172 41.8398C324.172 39.2357 323.469 37.1719 322.062 35.6484C320.669 34.125 318.703 33.3633 316.164 33.3633H315.695Z" fill="black"/>
</svg>
